# xmcd
#
# Track frame offsets: 
#        150
#        16945
#        30980
#        42665
#        59082
#        76419
#        94526
#        107403
#        121058
#        138923
#        155492
#        168981
#        186376
#        208625
#        227558
#        244693
#        259828
#        274993
#
# Disc length: 3931 seconds
#
# Revision: 0
# Processed by: cddbd v1.5.2PL0 Copyright (c) Steve Scherf et al.
# Submitted via: ExactAudioCopy v0.99pb5
#
DISCID=ef0f5912
DTITLE=Carpenters - Carpenters - The Essential Collection
DYEAR=1900
DGENRE=Country
TTITLE0=Close to you
TTITLE1=We've only only just begun
TTITLE2=For all we know
TTITLE3=Rainy days and Mondays
TTITLE4=Superstar
TTITLE5=Yesterday once more
TTITLE6=Please Mr. Postman
TTITLE7=Top of the world
TTITLE8=Goodbye to love
TTITLE9=Jambalala
TTITLE10=There's a kind of hush
TTITLE11=I need to be in love
TTITLE12=This masqueade
TTITLE13=Ticket to ride
TTITLE14=Only yesterday
TTITLE15=Sing
TTITLE16=Touch me when we're dancing
TTITLE17=Now
EXTD=
EXTT0=
EXTT1=
EXTT2=
EXTT3=
EXTT4=
EXTT5=
EXTT6=
EXTT7=
EXTT8=
EXTT9=
EXTT10=
EXTT11=
EXTT12=
EXTT13=
EXTT14=
EXTT15=
EXTT16=
EXTT17=
PLAYORDER=
